<svg viewBox="0 0 295 78" width="295" height="78" xmlns="http://www.w3.org/2000/svg"><g fill="none" fill-rule="evenodd" transform="translate(0-1)"><path d="m87.84 66.33h-76.856c-6.06 0-10.98-4.95-10.98-11.06v-44.22c0-6.105 4.916-11.06 10.98-11.06h76.856c6.06 0 10.98 4.95 10.98 11.06v44.22c0 6.105-4.916 11.06-10.98 11.06" transform="translate(0 6)" fill="#3770b5"/><g transform="translate(195.5 6.088)"><path d="m87.84 66.33h-76.856c-6.06 0-10.98-4.95-10.98-11.06v-44.22c0-6.105 4.916-11.06 10.98-11.06h76.856c6.06 0 10.98 4.95 10.98 11.06v44.22c0 6.105-4.916 11.06-10.98 11.06" stroke="#dedede" fill="#fff"/><g transform="translate(16.675 24.13)"><g fill="#253b80"><path d="m24.666 3.712h-3.578c-.245 0-.453.188-.491.444l-1.447 9.71c-.029.192.111.364.295.364h1.708c.245 0 .453-.188.491-.445l.39-2.619c.038-.256.246-.445.491-.445h1.133c2.357 0 3.717-1.207 4.073-3.599.16-1.046.007-1.869-.456-2.445-.509-.632-1.411-.967-2.608-.967m.413 3.546c-.196 1.359-1.177 1.359-2.125 1.359h-.54l.379-2.538c.022-.153.148-.266.295-.266h.247c.646 0 1.256 0 1.571.39.188.233.245.578.174 1.055"/><path d="m36.13 6.978h-1.763c-.15 0-.28.114-.303.269l-.078.512-.123-.186c-.382-.575-1.233-.767-2.083-.767-1.949 0-3.613 1.532-3.937 3.681-.169 1.072.071 2.097.657 2.812.537.657 1.306.931 2.221.931 1.57 0 2.441-1.048 2.441-1.048l-.079.509c-.03.195.115.369.303.369h1.588c.253 0 .466-.19.506-.449l.953-6.266c.03-.193-.114-.368-.302-.368m-2.458 3.563c-.17 1.046-.97 1.748-1.989 1.748-.512 0-.921-.17-1.184-.494-.261-.321-.36-.778-.277-1.286.159-1.037.972-1.762 1.976-1.762.501 0 .908.173 1.176.499.269.329.375.789.298 1.295"/><path d="m45.39 6.806h-1.798c-.172 0-.333.085-.43.226l-2.479 3.628-1.051-3.487c-.066-.218-.269-.368-.498-.368h-1.766c-.215 0-.364.208-.296.409l1.98 5.773-1.862 2.611c-.146.206.0001.488.254.488h1.795c.17 0 .33-.082.427-.221l5.979-8.574c.143-.205-.004-.486-.256-.486"/></g><g fill="#179bd7"><path d="m51.22 3.712h-3.579c-.244 0-.453.188-.491.444l-1.447 9.71c-.029.192.111.364.294.364h1.837c.171 0 .317-.132.343-.311l.411-2.752c.038-.256.246-.445.491-.445h1.132c2.358 0 3.718-1.207 4.073-3.599.161-1.046.006-1.869-.457-2.445-.508-.632-1.41-.967-2.607-.967m.413 3.546c-.195 1.359-1.176 1.359-2.125 1.359h-.539l.379-2.538c.022-.153.147-.266.294-.266h.247c.646 0 1.256 0 1.571.39.188.233.245.578.173 1.055"/><path d="m62.07 6.978h-1.762c-.151 0-.28.114-.303.269l-.078.512-.124-.186c-.382-.575-1.233-.767-2.082-.767-1.949 0-3.612 1.532-3.937 3.681-.168 1.072.071 2.097.656 2.812.538.657 1.306.931 2.221.931 1.57 0 2.441-1.048 2.441-1.048l-.079.509c-.03.195.115.369.304.369h1.588c.251 0 .466-.19.505-.449l.954-6.266c.029-.193-.115-.368-.304-.368m-2.458 3.563c-.169 1.046-.97 1.748-1.99 1.748-.511 0-.921-.17-1.184-.494-.261-.321-.359-.778-.277-1.286.16-1.037.972-1.762 1.976-1.762.501 0 .908.173 1.176.499.27.329.376.789.298 1.295"/><path d="m63.844 3.979l-1.464 9.887c-.029.192.111.364.293.364h1.472c.245 0 .452-.188.49-.445l1.444-9.709c.029-.192-.111-.365-.293-.365h-1.648c-.146.0001-.271.114-.293.267"/></g><path d="m3.88 16.09l.275-1.827-.613-.015h-2.925l2.033-13.48c.006-.041.027-.079.057-.106.03-.027.068-.042.108-.042h4.932c1.637 0 2.767.356 3.357 1.06.277.33.453.675.538 1.054.089.398.091.874.004 1.454l-.006.042v.372l.277.164c.233.129.418.277.56.447.237.282.39.641.454 1.066.067.437.045.957-.065 1.546-.126.677-.33 1.268-.606 1.75-.253.445-.576.814-.96 1.1-.366.272-.801.478-1.293.61-.476.13-1.02.195-1.615.195h-.384c-.274 0-.541.103-.75.289-.21.189-.349.448-.391.73l-.029.164-.486 3.22-.022.118c-.006.037-.016.056-.03.069-.013.012-.032.019-.05.019h-2.37" fill="#253b80"/><path d="m12.218 4.331c-.015.098-.032.199-.052.302-.67 3.491-2.962 4.698-5.889 4.698h-1.49c-.358 0-.66.264-.715.622l-.763 4.913-.216 1.393c-.036.235.142.447.376.447h2.643c.313 0 .579-.231.628-.544l.026-.136.498-3.206.032-.176c.049-.314.315-.545.628-.545h.395c2.561 0 4.566-1.056 5.152-4.11.245-1.276.118-2.341-.53-3.091-.196-.226-.439-.413-.723-.566" fill="#179bd7"/><path d="m11.661 3.958c-.101-.03-.205-.058-.312-.083-.107-.024-.217-.046-.33-.065-.396-.066-.83-.098-1.295-.098h-3.924c-.097 0-.188.023-.271.064-.181.09-.315.268-.348.485l-.835 5.479-.024.16c.055-.361.352-.626.705-.626h1.469c2.885 0 5.143-1.214 5.804-4.726.02-.104.036-.205.051-.304-.167-.092-.348-.17-.543-.237-.048-.017-.098-.033-.148-.048" fill="#222d65"/><path d="m5.122 4.084c.032-.208.167-.379.347-.465.083-.039.174-.061.27-.061h3.917c.464 0 .897.03 1.293.094.113.018.223.039.33.062.107.024.21.05.311.08.05.015.1.03.148.046.194.064.375.14.542.228.196-1.245-.002-2.092-.678-2.86-.745-.845-2.091-1.207-3.812-1.207h-4.997c-.352 0-.652.255-.706.601l-2.082 13.14c-.041.26.16.494.424.494h3.085l.775-4.893.833-5.254" fill="#253b80"/></g></g><g transform="translate(88.91)"><path d="m104 79h-91c-7.18 0-13-5.821-13-13v-52c0-7.179 5.82-13 13-13h91c7.18 0 13 5.821 13 13v52c0 7.179-5.82 13-13 13" fill="#000"/><path d="m26.326 56.43c8.477 7.865 19.651 12.572 32.14 12.572 7.755 0 16.693-2.221 23.594-6.454.922-.541 1.84-1.146 2.693-1.816 1.184-.871.133-2.219-1.051-1.684-.525.202-1.117.474-1.642.675-7.562 3.03-15.509 4.44-22.874 4.44-11.7 0-23-3.297-32.14-8.74-.854-.468-1.447.403-.721 1.01m64.67-.403c0-.543-.13-.941-.26-1.143-.591-.737-4.934-1.414-8.678-.271-1.051.34-1.973.809-2.826 1.414-.658.471-.526 1.072.132 1.01.721-.137 1.644-.201 2.694-.34 2.301-.196 4.997-.264 5.652.606.918 1.142-1.051 6.118-1.908 8.269-.26.675.33.945.922.473 2.959-2.555 4.207-7.191 4.272-9.613v-.403" fill="#f90"/><path d="m73.71 49.13c-1.279-1.66-2.855-3.084-2.855-6.281l-.101-10.672c0-4.507.746-8.656-2.503-11.734-2.671-2.493-6.853-3.439-10.1-3.439h-1.396c-5.923.356-12.195 2.961-13.591 10.432-.229.946.468 1.302.932 1.424l6.504.83c.697-.122 1.045-.714 1.158-1.308.585-2.606 2.674-3.909 4.997-4.147h.467c1.389 0 2.9.595 3.716 1.775.925 1.426.813 3.323.813 4.981v.948c-1.51.122-3.253.238-4.995.478-2.671.352-5.343.83-7.548 1.892-4.298 1.782-7.203 5.573-7.203 11.146 0 6.997 4.415 10.548 9.989 10.548 1.862 0 3.372-.233 4.762-.59 2.209-.712 4.066-2.01 6.272-4.387 1.279 1.781 1.625 2.611 3.834 4.505.582.24 1.163.24 1.625-.118 1.393-1.186 3.831-3.318 5.112-4.503.581-.478.462-1.186.117-1.781m-16.96 0c-.232 0-.578.121-.928.121-2.555 0-4.069-2.01-4.069-4.981 0-3.791 2.209-5.573 4.997-6.401 1.511-.356 3.253-.474 4.995-.474v1.424c0 2.728.112 4.861-1.278 7.227-.813 1.658-2.206 2.727-3.717 3.084" fill="#fff"/></g><path d="m7.21 0c.258.036.515.071.773.109.308.045.312.049.244.352-.102.455-.219.907-.301 1.365-.04.222-.128.224-.317.196-.361-.053-.73-.102-1.092-.083-.693.035-1.173.416-1.372 1.08-.143.478-.206.98-.314 1.519h2.185c-.085.462-.157.881-.245 1.297-.015.071-.097.13-.155.188-1.045 1.038-2.091 2.074-3.136 3.112-.072.072-.139.15-.253.274h1.971c.007.018.015.036.022.054-1.73 1.784-3.461 3.569-5.191 5.353-.001-.007-.019-.014-.029-.021.621-1.213 1.243-2.426 1.885-3.681h-1.764c.809-1.592 1.596-3.14 2.41-4.741h-1.856c.067-.503.128-.963.189-1.422.008-.06.023-.119.024-.179.0001-.147.077-.195.214-.196.224-.0001.449-.001.673-.022.415-.022.656-.267.771-.646.129-.424.231-.856.363-1.279.34-1.086.98-1.916 2.08-2.294.412-.142.858-.185 1.289-.273.101-.021.202-.04.303-.06h.629m64.79 7.268c-.049.289-.091.579-.15.866-.111.544-.062.446-.526.45-1.391.012-2.782.022-4.173.025-.179 0-.259.057-.251.244.011.263-.019.534.029.789.128.674.561 1.076 1.255 1.188.925.151 1.814-.033 2.685-.342.062-.022.123-.046.203-.076.001.052.025.092.024.132-.008.409-.012.818-.034 1.226-.004.071-.071.18-.131.2-1.365.454-2.754.661-4.163.262-1.081-.306-1.68-1.096-1.805-2.225-.163-1.467.102-2.855.922-4.09 1.025-1.545 2.738-2.041 4.309-1.633.987.257 1.646 1.082 1.745 2.133.008.088.04.173.061.259v.591m-4.83-.015c.094.008.173.02.252.019.816-.008 1.633-.019 2.449-.029.029 0 .064.008.087-.005.04-.023.092-.052.106-.091.193-.546-.159-1.295-.7-1.465-1.044-.329-2.02.49-2.195 1.571m-11.1 8.44c.16-.597.318-1.182.469-1.743.546.119 1.06.251 1.581.341.63.109 1.264.087 1.882-.084.898-.248 1.341-.884 1.522-1.735.111-.522.229-1.042.342-1.563.004-.02-.004-.043-.013-.122-.075.091-.124.148-.171.207-.823 1.056-2 1.44-3.311 1.145-.894-.201-1.404-.819-1.502-1.672-.224-1.931.272-3.662 1.729-5.05.771-.736 1.732-1.114 2.803-1.221 1.108-.111 2.205.007 3.302.142.193.024.245.092.207.297-.479 2.603-.939 5.209-1.417 7.812-.361 1.964-1.757 3.222-3.792 3.475-1.139.142-2.265.103-3.384-.142-.053-.012-.105-.025-.157-.04-.022-.006-.041-.019-.092-.043m5.639-10.02c-.968-.0001-1.681.405-2.145 1.225-.287.507-.43 1.058-.522 1.625-.081.5-.141 1 .052 1.49.115.293.32.489.642.563.451.103.857.005 1.23-.247.486-.329.805-.79 1.024-1.312.414-.984.466-2.047.672-3.077.009-.043-.076-.143-.13-.153-.272-.05-.548-.079-.823-.116m-26.294 6.175c.093-.673.178-1.305.269-1.937.145-1.01.295-2.01.441-3.02.175-1.207.349-2.414.523-3.621.049-.338.096-.675.148-1.012.017-.113-.007-.176-.142-.191-.338-.035-.674-.091-1.012-.12-.16-.014-.212-.052-.177-.214.052-.241.096-.487.107-.733.001-.212.12-.275.311-.288.309-.021.618-.06.928-.072.666-.026 1.333-.04 1.999-.055.064-.0001.129.024.226.043-.28 1.604-.375 3.221-.775 4.806.099-.112.195-.227.298-.336.724-.769 1.637-1.095 2.703-1.046.225.001.454.039.67.099.702.195 1.16.724 1.155 1.423-.005.621-.076 1.244-.156 1.862-.159 1.231-.345 2.459-.52 3.688-.008.057-.023.114-.032.171-.09.527-.09.528-.656.528-.371 0-.743.0001-1.114-.0001-.081 0-.162-.007-.277-.013.046-.35.086-.678.133-1.01.145-1.013.294-2.026.439-3.039.054-.381.111-.762.151-1.145.056-.544-.212-.92-.678-.966-.349-.035-.68.025-.982.202-.781.459-1.206 1.163-1.382 1.993-.168.795-.255 1.606-.375 2.41-.068.459-.125.92-.202 1.378-.012.074-.097.196-.151.197-.612.014-1.224.009-1.871.009m8.935-5.582c0-.368 0-.714.0001-1.059 0-.038.009-.075.012-.113.037-.477.038-.474.479-.601 1.053-.302 2.122-.427 3.211-.299.438.052.867.158 1.24.417.674.469.784 1.183.701 1.933-.142 1.276-.328 2.547-.499 3.819-.05.375-.056.378.294.426.253.035.508.065.762.085.153.012.231.065.203.239-.046.291-.079.584-.129.874-.001.06-.07.157-.111.158-1 .046-2.01.082-3.051.121.078-.441.155-.874.231-1.307-.001-.007-.02-.014-.029-.021-.036.047-.076.092-.109.141-.712 1.077-2.119 1.61-3.332 1.249-.837-.249-1.184-.907-1.131-1.737.085-1.347.877-2.128 1.998-2.625.824-.366 1.698-.497 2.589-.508.205-.003.321-.057.316-.29-.002-.112.024-.225.033-.338.069-.872-.479-1.079-1.017-1.128-.858-.078-1.666.138-2.451.475-.065.028-.131.055-.21.088m2.954 2.464c-.21.022-.422.034-.63.068-.405.066-.811.145-1.15.401-.15.113-.295.255-.391.417-.185.313-.242.661-.021.981.215.313.55.365.887.303.903-.166 1.419-.779 1.69-1.644.162-.517.137-.538-.386-.526m-19.862 1.68c0 .483.008.942-.009 1.399-.002.062-.115.155-.191.174-.551.138-1.101.293-1.661.38-.733.114-1.473.109-2.203-.062-1.268-.297-1.989-1.085-2.099-2.415-.119-1.43.14-2.788.958-3.992.966-1.422 2.697-2.061 4.319-1.604.966.272 1.602 1.032 1.736 2.047.091.693.025 1.37-.126 2.046-.036.16-.111.216-.259.206-.066-.004-.133-.0001-.2 0-1.405.008-2.811.02-4.216.021-.184 0-.259.068-.258.243.002.227-.02.458.016.679.14.856.718 1.314 1.658 1.346.794.027 1.56-.109 2.303-.388.067-.025.136-.047.232-.08m-3.935-3.16c.113.009.207.023.301.022.407-.005.813-.017 1.22-.021.4-.004.799.005 1.199-.006.067-.002.174-.06.193-.116.194-.589-.176-1.302-.762-1.458-1.103-.293-1.973.602-2.15 1.579m-3.74 3.168c0 .353.007.683-.0001 1.013-.014.571.119.474-.48.649-1.208.355-2.437.496-3.677.2-1.249-.298-1.975-1.242-2.024-2.561-.048-1.284.155-2.509.832-3.613.708-1.156 1.722-1.817 3.065-1.943.571-.053 1.123-.002 1.655.204.873.338 1.325 1.026 1.473 1.945.111.691.026 1.371-.117 2.05-.04.192-.126.237-.302.237-1.435-.004-2.87-.0001-4.305.0001-.303 0-.327.02-.334.332-.004.204-.014.412.018.612.131.818.706 1.283 1.586 1.321.831.036 1.635-.086 2.413-.389.053-.021.11-.033.199-.058m-2.501-3.154v-.0001c.414 0 .828-.007 1.242.003.18.004.246-.071.266-.247.105-.932-.563-1.572-1.464-1.392-.775.155-1.197.691-1.453 1.41-.064.18-.004.231.166.229.414-.005.828-.002 1.242-.002m17.1 3.152c0 .534.004 1.043-.007 1.551-.0001.05-.085.126-.144.144-1.139.335-2.295.467-3.457.15-1.077-.293-1.666-1.047-1.786-2.11-.172-1.525.129-2.964 1.051-4.228.81-1.111 1.953-1.643 3.325-1.758.649-.054 1.281.001 1.911.149.044.001.086.032.159.059-.059.241-.116.483-.177.723-.066.258-.151.513-.202.774-.035.182-.091.206-.277.161-.389-.092-.787-.177-1.184-.195-.894-.041-1.554.376-1.966 1.138-.445.823-.616 1.706-.405 2.628.149.652.634 1.017 1.308 1.076.574.05 1.125-.038 1.668-.209.064-.02.13-.037.183-.052m-26.2 1.985c.046-.361.09-.733.141-1.104.13-.953.262-1.906.394-2.859.1-.724.197-1.449.301-2.173.051-.353.049-.362-.299-.4-.287-.032-.573-.066-.86-.092-.125-.011-.174-.061-.154-.193.047-.312.077-.627.136-.936.013-.068.117-.165.184-.168.956-.056 1.913-.096 2.87-.146.194-.001.284.028.223.257-.101.379-.175.764-.26 1.147-.015.069-.03.138-.044.208.019.008.038.016.057.024.045-.075.089-.15.134-.225.438-.739 1-1.32 1.866-1.518.177-.04.36-.054.541-.074.151-.016.219.018.179.208-.112.527-.202 1.058-.292 1.589-.026.15-.088.206-.243.2-1.035-.039-1.608.346-2.022 1.334-.277.66-.378 1.361-.476 2.062-.127.907-.245 1.815-.377 2.721-.001.066-.102.172-.157.172-.593.011-1.187.004-1.781.0001-.013 0-.026-.014-.062-.035m43.659.036c.298-2.186.593-4.344.893-6.546-.375-.049-.726-.103-1.078-.137-.296-.029-.308-.036-.263-.334.04-.259.061-.522.114-.779.015-.074.11-.183.173-.187.989-.058 1.978-.102 2.968-.148.203-.001.175.129.149.252-.087.399-.181.797-.272 1.195-.013.057-.024.115-.036.172.018.009.036.019.054.028.052-.085.104-.169.155-.254.444-.737 1.015-1.315 1.883-1.505.17-.037.348-.037.522-.048.134-.008.195.043.165.196-.106.545-.207 1.091-.3 1.638-.023.135-.084.16-.203.145-.999-.126-1.617.382-2.01 1.253-.284.625-.402 1.292-.491 1.968-.127.956-.263 1.91-.388 2.866-.022.17-.084.234-.261.231-.578-.011-1.156-.004-1.771-.004" transform="translate(13 31)" fill="#fff"/></g></svg>