<svg height="19" width="195" xmlns="http://www.w3.org/2000/svg" viewBox="0 0 195 19"><path fill="none" d="M18.75 18.89H0V.12h18.75v18.77zm0 0"/><path fill="#413a66" fill-rule="evenodd" d="M14.18 14.13c-.04-.11-.04-.15-.07-.18-1.16-1.22-2.32-2.43-3.48-3.65-.05-.05-.07-.13-.17-.35.37-.13.69-.29 1.03-.37.49-.11.69-.45.47-.9-.29-.6-.12-1.19.46-1.5-.03-.08-.03-.2-.08-.26-.64-.68-.41-1.65-.83-2.41-.04-.07.01-.23.07-.32.31-.46.04-.84-.3-.98-.78-.31-1.6-.6-2.43-.71C8 2.39 6.26 3.86 6.03 4.72c-.01.05-.02.11-.02.17.09 1.14.1 2.32.83 3.27.37.49.2.85 0 1.26-.1.21-.28.38-.4.58-.59 1.07-1.19 2.12-1.76 3.2-.2.38-.12.71.23 1.04.78.74 1.66 1.18 2.7 1.47 2.52.73 4.58-.15 6.57-1.58m-4.84 4.76C4.19 18.87-.01 14.64 0 9.48.01 4.31 4.26.09 9.44.12c5.11.02 9.3 4.25 9.31 9.38 0 5.17-4.24 9.41-9.41 9.39M93.58 2.28h2.67v13.4c-.84 0-1.68.02-2.52-.02-.15-.01-.32-.25-.43-.42-1.57-2.57-3.13-5.15-4.7-7.72-.11-.18-.23-.35-.46-.5v8.62h-2.68V2.26c.83 0 1.63-.03 2.43.02.18.01.39.23.5.41 1.57 2.57 3.13 5.14 4.7 7.72.12.19.25.38.49.55V2.28zm0 0M72.1 2.26c.83 0 1.64-.03 2.44.02.17.01.38.23.49.41 1.59 2.59 3.16 5.18 4.74 7.77.11.18.23.35.43.65V2.3h2.67v13.38c-.81 0-1.62.03-2.42-.02-.17-.01-.38-.23-.49-.41-1.58-2.57-3.14-5.15-4.71-7.72-.11-.18-.22-.36-.47-.5v8.61H72.1V2.26zm0 0M70.33 4.45h-6.16v3.21h5.21v2.11c-.19.01-.4.03-.61.03-1.36 0-2.72.02-4.08 0-.42-.01-.6.1-.59.55.03 1.02.01 2.04.01 3.13h6.22v2.16h-8.87V2.29h8.87v2.16zm0 0M51.92 4.49c0 1.35-.01 2.63.02 3.91 0 .12.22.33.34.33.84.03 1.7.06 2.54-.01 1.18-.09 1.83-.77 1.88-1.87.06-1.26-.6-2.22-1.75-2.34-.97-.1-1.96-.02-3.03-.02zm-2.66-2.24c1.28 0 2.53-.02 3.79.01 1.04.04 2.1.02 3.1.25 2.6.59 3.97 3.17 3.07 5.67-.61 1.73-2.01 2.46-3.72 2.66-.93.11-1.89.11-2.83.09-.57-.02-.79.1-.77.74.06 1.31.02 2.63.02 3.98h-2.66V2.25zm0 0M104.48 15.66h-2.73c0-.84-.07-1.67.01-2.48.15-1.61-.27-3.03-1.06-4.43-1.18-2.09-2.21-4.25-3.36-6.49.99 0 1.9-.02 2.81.02.13 0 .28.25.35.41.77 1.66 1.53 3.32 2.29 4.98.09.19.19.38.33.67.36-.78.67-1.45.99-2.12.54-1.18 1.1-2.36 1.62-3.54.14-.31.3-.45.65-.43.8.02 1.6 0 2.49 0-.14.3-.23.51-.33.71-1.23 2.38-2.47 4.75-3.66 7.14-.24.48-.36 1.04-.39 1.57-.05 1.1-.01 2.2-.01 3.31v.68M186.6 9.12c1.36 0 2.65.04 3.94-.01 1.57-.07 2.65-1.2 2.76-2.77.11-1.55-.84-2.86-2.43-3.04-1.37-.15-2.78-.08-4.17-.1-.03 0-.06.05-.1.09v5.83zm5.01.75c1.12 1.92 2.22 3.81 3.34 5.72-1.02.23-1.1.2-1.58-.63-.86-1.48-1.72-2.96-2.56-4.45-.2-.36-.44-.49-.84-.48-.95.03-1.9.03-2.84 0-.45-.01-.57.14-.57.58.03 1.45.01 2.91.01 4.37v.67h-1.02V2.34c.04-.02.09-.07.14-.07 1.72.02 3.43-.03 5.14.1 2 .14 3.23 1.34 3.52 3.21.27 1.81-.63 3.35-2.43 4.13-.09.04-.18.09-.31.16zm0 0M151.43 3.1c0 2.01-.01 3.84.02 5.67 0 .13.24.36.37.36 1.2.02 2.41.04 3.61-.02 1.53-.08 2.59-1.19 2.72-2.75.12-1.48-.75-2.81-2.24-3.02-1.44-.22-2.93-.17-4.48-.24m8.39 12.52c-.83.22-1.29-.03-1.67-.75-.78-1.5-1.68-2.93-2.52-4.4-.18-.32-.38-.45-.74-.44-.97.02-1.93.03-2.9 0-.44-.01-.58.13-.57.57.02 1.46.01 2.92.01 4.38v.67h-1.02V2.17c1.97.09 3.93.04 5.84.32 1.82.26 2.82 1.54 2.97 3.26.16 1.79-.7 3.21-2.39 3.94-.1.04-.21.1-.37.18 1.12 1.91 2.23 3.81 3.36 5.75M163.51 14.78c.93 0 1.8.01 2.66 0 2.13-.04 3.78-1.3 4.33-3.36.42-1.57.4-3.18.06-4.74-.37-1.68-1.39-2.94-3.11-3.3-1.26-.27-2.6-.21-3.94-.29v11.69zm-1.09.84V2.25c.7 0 1.38-.01 2.06.01 1 .03 2.02-.02 3 .17 2.4.48 4.12 2.49 4.27 4.95.08 1.21.11 2.46-.1 3.65-.45 2.7-2.19 4.31-4.89 4.57-1.42.13-2.86.02-4.34.02zm0 0M134.83 9.21c-.07-.95-.09-1.7-.19-2.44-.28-2.11-1.76-3.63-3.57-3.73-2.23-.12-3.8.98-4.32 3.19-.44 1.91-.46 3.87.09 5.78.57 1.99 2.05 2.97 4.18 2.9 1.67-.06 3.08-1.29 3.49-3.16.2-.89.23-1.82.32-2.54m1.07.14c-.11.75-.15 1.82-.43 2.83-.67 2.38-2.44 3.65-4.83 3.66-2.35 0-4.19-1.33-4.85-3.66-.58-2.04-.59-4.14-.06-6.19.71-2.72 2.66-4.03 5.5-3.87 2.21.13 4.05 1.94 4.45 4.44.13.81.14 1.64.22 2.79M122.43 15.66h-1v-6.4h-7.73v6.38h-1.04V2.29h1v5.97h7.72V2.3h1.05v13.36zm0 0M182.97 3.17h-7.1V8.3h5.57c.74 0 .77.03.6.91h-1.51c-1.38 0-2.76.01-4.14-.01-.44-.01-.58.14-.57.57.02 1.48.03 2.96 0 4.44-.01.49.19.58.62.58 1.98-.02 3.95-.01 5.92-.01h.62c.18.86.15.9-.59.9H174.8V2.3h8.17v.87zm0 0M142.81 3.74c-.04-.01-.09-.01-.14-.01-.88 2.4-1.76 4.79-2.65 7.23h5.45c-.9-2.45-1.78-4.84-2.66-7.22m5.47 11.89c-1.03.13-1.03.13-1.35-.74-.32-.87-.62-1.74-.98-2.59-.07-.18-.35-.37-.53-.38-1.78-.03-3.55 0-5.32-.02-.34-.01-.49.12-.59.42-.3.86-.62 1.71-.93 2.55-.32.88-.32.88-1.37.76.07-.21.12-.41.19-.6 1.53-4.06 3.07-8.13 4.6-12.19.14-.38.28-.6.77-.61.49-.01.59.25.72.6 1.53 4.06 3.07 8.12 4.6 12.19.07.2.13.4.19.61M31.97 15.64V4.66h.77v4.36c.04.02.08.05.13.07.12-.15.23-.29.36-.43.78-.82 1.76-1.01 2.82-.81.98.19 1.57.89 1.61 1.81.09 1.98.03 3.97.03 5.99h-.71l-.03-.7c-.01-1.61.01-3.23-.04-4.85-.02-.85-.43-1.33-1.13-1.55-1.46-.44-3.04.72-3.04 2.25v4.84h-.77zm0 0M45.09 11.09c0-1.64-.89-2.64-2.27-2.62-1.29.02-2.37 1.21-2.35 2.62h4.62zm.78.72h-4.4c-1.25 0-1.31.09-.95 1.29.68 2.31 3.31 2.69 4.74 1.03l.46.31c-1.02 1.64-3.57 1.86-5.03.46-1.6-1.53-1.51-4.94.18-6.36.96-.81 2.06-.98 3.21-.53 1.13.44 1.61 1.39 1.78 2.52.06.38.01.78.01 1.28zm0 0M26.83 15.66h-.84V5.92H22.4c-.01-.25-.03-.44-.04-.67h7.99v.63h-3.52v9.78zm0 0"/></svg>