<svg xmlns="http://www.w3.org/2000/svg" width="100" height="19"><path d="M8.44 1.04c2.17.05 3.87 1.51 4.23 3.52.42 2.27-.76 4.2-2.59 4.72-.04.02-.08.06-.14.1 1.73.5 2.77 1.64 3.06 3.36.48 2.83-1.08 5.16-4.05 5.49-.65.07-1.32.07-1.98.08-2.32.01-4.65.01-6.97.01V1.01c2.81 0 5.63-.04 8.44.03zM3.89 15.06c1.16.01 2.33.05 3.49-.01 1.21-.05 1.92-.79 1.95-1.88.04-1.09-.63-1.88-1.8-2.02-.75-.09-1.51-.05-2.26-.06H3.74v3.93c.05.01.1.04.15.04zm2.98-7.19c.19 0 .4 0 .59-.04.73-.15 1.28-.52 1.47-1.27.3-1.21-.47-2.25-1.72-2.32-.58-.02-1.17 0-1.75 0-.57-.01-1.14 0-1.72 0-.01.12-.02.2-.02.27-.01 1.1 0 2.2 0 3.36h3.15zM65.87 17.95c-3.4-.81-5.13-3.73-4.84-6.96.25-2.7 1.62-4.67 4.22-5.58 3.63-1.28 7.84.44 8.46 5.26.09.63.08 1.28.12 1.98H64.45c.22 1.19.82 2.02 1.87 2.46 1.7.72 3.29.36 4.79-.6.09-.06.17-.13.26-.19h.09c.46.68.93 1.37 1.46 2.16-.48.3-.93.62-1.41.87-.9.45-1.87.68-2.87.77-.11.01-.22.05-.33.08h-1.12c-.44-.08-.88-.15-1.32-.25zM67.29 7.7c-1.57.07-2.96 1.39-2.79 2.67h6.09c.07-1.55-1.42-2.74-3.3-2.67zM78.55 17.87c-2.53-.7-4.28-2.83-4.51-5.45-.22-2.46.5-4.55 2.48-6.1 3.01-2.36 8.92-1.82 10.09 3.75.08.4.13.81.16 1.22.03.43.01.87.01 1.37h-9.32c.08.69.35 1.25.8 1.72 1.03 1.06 2.32 1.26 3.71 1.01.88-.15 1.7-.49 2.44-1.12.49.73.97 1.43 1.5 2.2-.39.26-.75.53-1.14.74-.96.53-2.01.81-3.1.91-.13.01-.25.05-.38.08h-1.12c-.54-.11-1.09-.18-1.62-.33zm5.03-7.49c.08-1.51-1.37-2.71-3.2-2.67-1.61.03-3.02 1.3-2.9 2.67h6.1zM19.1 18.83c-.4-.08-.8-.15-1.2-.24-2.45-.59-3.9-2.41-3.9-4.93V6.44v-.43h3.31v.46c0 2.27.01 4.55 0 6.82-.01 1.04.31 1.91 1.29 2.36 1.07.49 2.16.47 3.14-.23.72-.51.93-1.29.93-2.13V6.5 6h3.27v.45c0 2.38.01 4.76 0 7.14 0 2.88-1.79 4.85-4.67 5.15-.14.02-.28.06-.42.09H19.1zM50 18.26V1h12.05v1.67c0 .37-.03.75 0 1.12.03.36-.11.43-.45.43-2.38-.01-4.75-.01-7.13-.01h-.75v3.64h.45c1.79 0 3.58.01 5.37-.01.37 0 .45.11.44.45-.02.91-.01 1.82-.01 2.78h-6.28v7.19H50zM88 18.1V6.51c0-.5 0-.51.53-.5 1.81.01 3.64-.06 5.45.08 2.57.19 4.59 1.35 5.54 3.89.97 2.57.23 5.51-1.74 7.12-1.16.95-2.52 1.42-4 1.47-1.87.07-3.74.02-5.61.02-.04 0-.08-.01-.17-.04v-.45zm4.98-2.19c2.14 0 3.49-1.21 3.73-3.33.17-1.52-.66-3.03-1.97-3.57-1.16-.47-2.37-.22-3.58-.29v7.19h1.82zM32.64 8.83h-5.61V6h10.15c0 .53-.03 1.07.01 1.6.03.5-.12.88-.43 1.26-1.69 2.09-3.35 4.21-5.02 6.31-.09.12-.18.23-.31.42h5.81v2.88H27c0-.79-.01-1.57.01-2.36.01-.14.14-.28.24-.4 1.71-2.17 3.43-4.34 5.14-6.51.07-.1.13-.19.25-.37zM38 8.83V6.3c0-.09.02-.18.03-.3h10.11c0 .76.01 1.51-.01 2.26 0 .11-.11.23-.19.33-1.74 2.2-3.49 4.4-5.23 6.61-.09.1-.16.22-.3.41h.51c1.65 0 3.29 0 4.94-.01.3 0 .42.07.41.4-.02.81-.01 1.63-.01 2.48H38.01c0-.82-.01-1.62.01-2.43 0-.1.11-.2.18-.29 1.67-2.12 3.34-4.24 5.02-6.36.13-.17.25-.33.44-.57H38z" fill="#ee3624"/></svg>