<svg xmlns="http://www.w3.org/2000/svg" height="53" width="53"><path d="M1 26.73C1 40.66 12.34 52 26.27 52c14.02 0 25.36-11.34 25.36-25.27 0-14.02-11.34-25.36-25.36-25.36C12.34 1.37 1 12.71 1 26.73zm26.03 6.82c-1.72 0-3.84-.57-5.28-2.02-1.34-1.44-1.92-2.97-1.92-5.09V15.88h3.07v5.76l.1-.1s1.44-1.53 3.65-1.53c3.75 0 6.82 2.97 6.82 6.63 0 1.53-.67 3.45-1.63 4.7-1.25 1.35-2.98 2.21-4.81 2.21zm10.28-2.02c-1.44-1.34-2.11-3.07-2.11-4.99 0-3.84 3.17-6.82 6.82-6.82 2.88 0 5.67 1.92 6.44 4.71H45c-.67-1.16-1.73-1.64-3.08-1.64-2.21 0-3.65 1.64-3.65 3.75 0 2.3 1.64 3.94 3.85 3.94 1.15 0 2.21-.67 2.88-1.64h3.46c-.87 2.79-3.56 4.71-6.44 4.71-1.73 0-3.46-.77-4.71-2.02zm-22.48 1.54v-1.44c-1.24 1.06-2.49 1.44-3.84 1.44-2.69 0-4.32-.86-5.38-2.11-1.06-1.35-1.63-2.88-1.63-4.23 0-1.82.57-3.46 1.73-4.71 1.34-1.63 3.46-2.21 5.38-2.21 1.73 0 6.53 1.06 6.53 6.83v6.43zm-7.78-6.53c0 2.21 1.73 3.84 3.85 3.75 2.2.09 3.84-1.64 3.84-3.85S13.1 22.6 10.9 22.6c-2.21 0-3.85 1.73-3.85 3.94zm15.95.19c0 2.11 1.63 3.94 3.94 3.94 2.11 0 3.65-1.63 3.65-3.75 0-2.21-1.44-3.94-3.65-3.94-2.12 0-3.94 1.54-3.94 3.75z" fill="#080908"/></svg>