<svg xmlns="http://www.w3.org/2000/svg" width="300" height="116.348" viewBox="0 0 300 116.348"><g fill="#357160"><path d="M119.13 22.484c0 4.347.083 4.97 2.486 5.176l1.325.126c.247.166.168.91-.083 1.033-2.358-.083-3.768-.123-5.426-.123-1.657 0-3.105.042-5.756.122-.248-.123-.332-.83 0-1.034l1.492-.126c2.363-.206 2.57-.83 2.57-5.176V3.97c0-1.283 0-1.325-1.245-1.325h-2.277c-1.78 0-4.06.082-5.094 1.035-.996.91-1.41 1.82-1.863 2.857-.33.25-.913.042-1.077-.29.662-1.862 1.283-4.513 1.575-6.17.125-.083.66-.12.787 0 .247 1.326 1.614 1.284 3.52 1.284h16.774c2.234 0 2.61-.083 3.23-1.158.208-.084.662-.042.747.124-.457 1.698-.747 5.052-.623 6.296-.164.33-.87.33-1.075.082-.125-1.034-.413-2.567-1.036-3.022-.954-.705-2.525-1.035-4.802-1.035h-2.94c-1.245 0-1.203.042-1.203 1.408v18.43h-.004zM145.572 15.32c-1.988 0-2.072.084-2.072 1.325v5.84c0 4.348.208 4.93 2.527 5.177l1.2.124c.247.166.167.91-.083 1.035-2.234-.083-3.646-.125-5.26-.125-1.78 0-3.188.084-4.8.126-.252-.125-.334-.786-.086-1.034l.705-.124c2.32-.415 2.4-.83 2.4-5.178V7.574c0-4.346-.287-5.05-2.442-5.217l-1.074-.082c-.25-.165-.166-.91.082-1.036 2.03.04 3.438.124 5.218.124 1.614 0 3.026-.043 4.806-.125.25.124.332.87.084 1.035l-.79.082c-2.4.25-2.484.87-2.484 5.218v4.763c0 1.284.084 1.326 2.072 1.326h11.846c1.986 0 2.07-.042 2.07-1.326V7.575c0-4.347-.084-4.968-2.526-5.218l-.787-.082c-.246-.165-.166-.91.084-1.036 1.905.08 3.315.124 5.01.124 1.614 0 3.024-.043 4.886-.125.25.124.333.87.084 1.035l-.87.082c-2.403.25-2.488.87-2.488 5.218v14.91c0 4.348.085 4.884 2.487 5.177l.995.124c.25.166.164.91-.083 1.035-1.988-.083-3.398-.125-5.01-.125-1.697 0-3.19.042-5.01.126-.25-.125-.33-.786-.085-1.034l.787-.124c2.527-.415 2.527-.83 2.527-5.178v-5.84c0-1.24-.084-1.324-2.07-1.324h-11.848zM176.74 7.575c0-4.31-.085-4.93-2.527-5.218l-.665-.085c-.246-.164-.162-.91.084-1.033 1.78.08 3.188.124 4.888.124h7.787c2.65 0 5.094 0 5.59-.125.246.702.497 3.684.66 5.506-.163.25-.824.332-1.034.084-.62-1.95-.994-3.398-3.148-3.937-.87-.204-2.197-.246-4.017-.246h-2.98c-1.245 0-1.245.082-1.245 1.656v8.28c0 1.16.127 1.16 1.368 1.16h2.402c1.74 0 3.023-.08 3.522-.245.496-.167.787-.417.995-1.45l.332-1.7c.204-.246.908-.246 1.075.042 0 .993-.164 2.61-.164 4.18 0 1.492.164 3.066.164 3.977-.164.29-.87.29-1.075.042l-.375-1.615c-.166-.746-.454-1.367-1.283-1.575-.58-.167-1.574-.21-3.19-.21h-2.4c-1.242 0-1.37.043-1.37 1.12v5.84c0 2.196.128 3.604.79 4.306.495.497 1.366.953 5.012.953 3.188 0 4.39-.165 5.303-.62.743-.418 1.86-1.865 2.94-4.02.288-.204.87-.082 1.035.29-.29 1.452-1.327 4.64-1.866 5.757-3.727-.082-7.412-.124-11.1-.124h-3.726c-1.78 0-3.188.042-5.633.124-.247-.124-.333-.787-.083-1.033l1.368-.126c2.358-.204 2.567-.83 2.567-5.176V7.575h-.002zM9.138 58.814c-1.988 0-2.07.082-2.07 1.326v5.84c0 4.348.204 4.926 2.524 5.177l1.202.122c.246.165.166.91-.084 1.036-2.235-.084-3.643-.126-5.26-.126-1.78 0-3.188.084-4.802.126-.25-.126-.332-.787-.084-1.037l.705-.123c2.32-.417 2.4-.83 2.4-5.178V51.07c0-4.348-.29-5.052-2.443-5.22l-1.075-.08c-.25-.167-.167-.914.082-1.036 2.03.042 3.438.122 5.218.122 1.618 0 3.025-.042 4.805-.122.25.122.333.87.084 1.035l-.788.08c-2.4.252-2.482.872-2.482 5.22v4.763c0 1.283.082 1.325 2.07 1.325h11.846c1.986 0 2.07-.042 2.07-1.325V51.07c0-4.348-.084-4.968-2.525-5.22l-.788-.08c-.246-.167-.166-.914.084-1.036 1.905.082 3.314.122 5.01.122 1.616 0 3.026-.042 4.888-.122.25.122.332.87.084 1.035l-.87.08c-2.402.252-2.486.872-2.486 5.22v14.91c0 4.348.084 4.886 2.485 5.177l.993.122c.25.165.166.91-.082 1.036-1.988-.084-3.398-.126-5.014-.126-1.696 0-3.188.042-5.01.126-.25-.126-.332-.787-.084-1.037l.79-.123c2.524-.417 2.524-.83 2.524-5.178v-5.84c0-1.244-.084-1.326-2.07-1.326H9.138zM59.953 55.252c0-2.567-.085-7.33-.787-8.574-.29-.496-1.038-.787-2.07-.87l-1.036-.083c-.25-.29-.166-.83.082-.993 1.576.084 3.106.126 4.722.126 1.742 0 2.86-.042 4.35-.126.33.206.29.747.08.993l-.992.084c-1.033.08-1.82.454-2.07.995-.58 1.365-.58 6.126-.58 8.447v4.682c0 3.604-.58 7.412-2.9 9.897-1.78 1.947-4.844 3.025-7.91 3.025-2.86 0-5.714-.54-7.745-2.28-2.197-1.82-3.23-4.847-3.23-9.774v-9.773c0-4.307-.084-5.01-2.484-5.218l-1.036-.085c-.25-.166-.166-.87.085-.993 2.07.084 3.477.126 5.133.126 1.7 0 3.068-.042 5.094-.126.25.126.33.83.083.993l-.993.084c-2.403.208-2.485.91-2.485 5.217v8.945c0 6.67 2.07 11.058 8.408 11.058 6.005 0 8.282-4.72 8.282-11.016v-4.762h-.002zM78.022 56.536c0 1.117.124 1.117 1.368 1.117h2.817c1.696 0 3.02-.082 3.518-.246.454-.166.787-.375 1.035-1.452l.375-1.656c.204-.25.91-.25 1.075 0 0 .992-.166 2.65-.166 4.182 0 1.492.166 3.063.166 4.02-.166.245-.787.245-1.075 0l-.417-1.62c-.208-.744-.54-1.325-1.325-1.57-.58-.167-1.614-.21-3.188-.21h-2.817c-1.244 0-1.368.043-1.368 1.12v5.755c0 4.35.084 4.97 2.527 5.178l1.408.124c.25.163.166.908-.082 1.034-2.447-.084-3.853-.126-5.51-.126-1.823 0-3.23.042-5.177.126-.25-.126-.332-.787-.084-1.035l1.035-.125c2.4-.293 2.485-.83 2.485-5.178v-14.91c0-4.347-.084-4.93-2.485-5.218l-.663-.083c-.246-.166-.166-.913.082-1.035 1.743.082 3.148.122 4.806.122h7.62c2.652 0 5.053 0 5.593-.122 0 1.904.04 3.893.125 5.468-.125.247-.705.37-.994.122-.332-1.864-.83-3.395-2.9-3.934-.912-.25-2.278-.25-4.018-.25h-2.524c-1.244 0-1.244.084-1.244 1.658v8.74zM102.907 56.536c0 1.117.124 1.117 1.367 1.117h2.818c1.695 0 3.02-.082 3.52-.246.454-.166.787-.375 1.037-1.452l.37-1.656c.205-.25.912-.25 1.077 0 0 .992-.167 2.65-.167 4.182 0 1.492.167 3.063.167 4.02-.167.245-.787.245-1.076 0l-.415-1.62c-.21-.744-.54-1.325-1.326-1.57-.58-.167-1.615-.21-3.188-.21h-2.818c-1.243 0-1.367.043-1.367 1.12v5.755c0 4.35.084 4.97 2.527 5.178l1.407.124c.252.163.167.908-.08 1.034-2.448-.084-3.853-.126-5.51-.126-1.823 0-3.23.042-5.177.126-.25-.126-.333-.787-.084-1.035l1.036-.125c2.4-.293 2.485-.83 2.485-5.178v-14.91c0-4.347-.083-4.93-2.484-5.218l-.663-.083c-.248-.166-.166-.913.082-1.035 1.742.082 3.148.122 4.806.122h7.624c2.65 0 5.05 0 5.59-.122 0 1.904.04 3.893.124 5.468-.124.247-.705.37-.995.122-.332-1.864-.83-3.395-2.9-3.934-.912-.25-2.28-.25-4.018-.25h-2.527c-1.24 0-1.24.084-1.24 1.658v8.74zM124.612 51.15c0-4.388-.084-5.092-2.527-5.3l-1.035-.083c-.25-.164-.164-.91.082-1.035 2.072.084 3.48.124 5.218.124 1.656 0 3.065-.04 5.136-.124.25.124.33.87.082 1.035l-1.033.082c-2.443.205-2.527.912-2.527 5.3v14.747c0 4.39.084 4.97 2.527 5.26l1.033.122c.25.165.168.912-.082 1.034-2.07-.084-3.48-.122-5.136-.122-1.738 0-3.146.04-5.218.122-.246-.122-.33-.787-.082-1.035l1.035-.123c2.443-.293 2.527-.87 2.527-5.26V51.15zM164.296 65.152c0 1.243 0 6.17.124 7.248-.082.246-.332.455-.787.455-.496-.705-1.7-2.155-5.302-6.254l-9.606-10.93c-1.117-1.285-3.934-4.683-4.805-5.594h-.083c-.167.497-.21 1.45-.21 2.693v9.028c0 1.946.043 7.33.746 8.572.25.458 1.077.705 2.115.787l1.283.126c.247.332.21.83-.083 1.035-1.862-.082-3.314-.124-4.846-.124-1.74 0-2.858.042-4.308.124-.288-.204-.332-.787-.082-1.035l1.117-.126c.954-.124 1.614-.37 1.823-.83.578-1.487.536-6.54.536-8.53v-11.97c0-1.158-.042-2.03-.91-2.983-.58-.58-1.573-.87-2.566-.993l-.705-.083c-.25-.246-.25-.87.082-1.033 1.743.124 3.935.124 4.682.124.662 0 1.367-.042 1.903-.124.83 2.11 5.715 7.58 7.082 9.11l4.017 4.516c2.86 3.188 4.89 5.506 6.836 7.495h.082c.164-.207.164-.872.164-1.743V55.25c0-1.946-.042-7.33-.83-8.572-.245-.372-.908-.62-2.566-.83l-.705-.083c-.288-.246-.246-.91.084-1.033 1.905.082 3.314.124 4.888.124 1.782 0 2.86-.042 4.267-.124.33.204.33.787.084 1.033l-.58.084c-1.326.208-2.155.536-2.32.87-.706 1.488-.622 6.626-.622 8.53v9.902zM197.894 67.967c0 1.656.25 2.65.993 2.94.122.123.122.374-.042.498-.497 0-1.24.164-2.03.37-2.19.583-5.175 1.08-7.413 1.08-4.926 0-9.443-1.366-12.633-4.598-2.484-2.485-3.81-5.756-3.81-9.403 0-3.52 1.16-7.08 3.727-9.815 2.775-2.9 6.876-4.847 13.13-4.847 2.362 0 4.554.455 5.26.62.784.167 2.068.456 2.566.373 0 1.368.25 3.523.623 6.005-.124.332-.87.374-1.12.128-1.157-4.474-4.266-5.883-8.49-5.883-8.034 0-11.557 5.72-11.557 11.93 0 7.95 4.098 14.204 12.426 14.204 2.567 0 4.1-.54 4.555-1.244.205-.29.416-1.036.416-2.36V66.31c0-3.48-.127-3.727-2.694-4.02l-1.824-.204c-.33-.166-.288-.913 0-1.035 1.204.085 3.48.123 5.923.123 1.617 0 3.025-.04 4.39-.122.293.165.333.788.042 1.036l-.663.082c-1.743.21-1.78 1.368-1.78 3.48v2.32h.004zM219.795 65.98c0 4.346.084 4.968 2.487 5.175l1.325.126c.246.167.164.912-.084 1.036-2.36-.082-3.766-.124-5.426-.124-1.654 0-3.104.042-5.757.124-.248-.124-.33-.83 0-1.035l1.494-.125c2.358-.205 2.567-.83 2.567-5.176V47.464c0-1.283 0-1.325-1.24-1.325h-2.28c-1.78 0-4.058.082-5.095 1.035-.993.91-1.406 1.824-1.862 2.857-.333.25-.91.042-1.078-.288.667-1.862 1.286-4.513 1.576-6.17.125-.083.664-.123.788 0 .248 1.326 1.616 1.284 3.522 1.284h16.772c2.236 0 2.61-.084 3.23-1.16.206-.083.662-.04.746.125-.458 1.7-.747 5.052-.625 6.295-.162.333-.866.333-1.075.082-.124-1.035-.412-2.567-1.035-3.023-.953-.705-2.525-1.035-4.803-1.035H221c-1.24 0-1.203.042-1.203 1.407v18.43h-.002zM235.792 58.814c0-8.28 6.21-14.62 14.745-14.62 9.567 0 14.368 6.915 14.368 14.208 0 8.364-6.375 14.453-14.368 14.453-9.197-.002-14.745-6.586-14.745-14.04m24.975.868c0-6.834-3.026-14.206-10.935-14.206-4.307 0-9.898 2.94-9.898 12.01 0 6.13 2.982 14.082 11.14 14.082 4.967 0 9.693-3.727 9.693-11.887M296.302 65.152c0 1.243 0 6.17.122 7.248-.082.246-.333.455-.787.455-.497-.705-1.698-2.155-5.3-6.254l-9.607-10.93c-1.12-1.285-3.935-4.683-4.806-5.594h-.082c-.166.497-.208 1.45-.208 2.693v9.028c0 1.946.042 7.33.745 8.572.25.458 1.078.705 2.113.787l1.284.126c.248.332.204.83-.085 1.035-1.862-.082-3.313-.124-4.843-.124-1.743 0-2.86.042-4.31.124-.288-.204-.333-.787-.082-1.035l1.117-.126c.953-.124 1.614-.37 1.824-.83.578-1.487.536-6.54.536-8.53v-11.97c0-1.158-.04-2.03-.91-2.983-.582-.58-1.575-.87-2.568-.993l-.705-.083c-.248-.246-.248-.87.082-1.033 1.742.124 3.935.124 4.682.124.662 0 1.367-.042 1.904-.124.83 2.11 5.715 7.58 7.083 9.11l4.02 4.516c2.854 3.188 4.886 5.506 6.83 7.495h.082c.167-.207.167-.872.167-1.743V55.25c0-1.946-.04-7.33-.83-8.572-.248-.372-.91-.62-2.566-.83l-.705-.083c-.287-.246-.245-.91.085-1.033 1.904.082 3.312.124 4.888.124 1.78 0 2.855-.042 4.265-.124.33.204.33.787.084 1.033l-.583.084c-1.327.208-2.156.536-2.32.87-.704 1.488-.62 6.626-.62 8.53v9.902zM102.63 109.473c0 4.347.085 4.888 2.734 5.176l1.122.126c.246.206.166.91-.085 1.033-2.36-.083-3.725-.125-5.383-.125-1.738 0-3.23.042-5.052.124-.25-.125-.33-.788-.084-1.034l.872-.127c2.4-.33 2.485-.83 2.485-5.177V94.19c0-3.518-.084-4.223-1.946-4.43l-1.49-.166c-.293-.25-.25-.87.08-1.035 2.198-.293 4.765-.33 8.203-.33 3.438 0 6.007.453 7.953 1.653 1.904 1.2 3.314 3.356 3.314 6.215 0 3.808-2.36 5.715-4.143 6.586-1.822.87-4.02 1.24-5.715 1.24-.292-.125-.292-.746-.042-.828 4.474-.83 6.09-3.356 6.09-6.958 0-4.017-2.363-6.626-6.67-6.626-2.193 0-2.235.167-2.235 1.492v18.47zM121.285 102.307c0-8.28 6.214-14.62 14.746-14.62 9.57 0 14.37 6.915 14.37 14.206 0 8.363-6.376 14.452-14.37 14.452-9.194.002-14.745-6.58-14.745-14.038m24.975.87c0-6.835-3.025-14.207-10.936-14.207-4.305 0-9.898 2.943-9.898 12.01 0 6.133 2.982 14.082 11.14 14.082 4.97.002 9.694-3.724 9.694-11.884M164.063 116.347c-3.48 0-5.675-1.077-6.464-1.534-.497-.91-1.034-3.85-1.118-5.796.206-.288.83-.373.993-.122.62 2.11 2.32 6.17 7.124 6.17 3.477 0 5.175-2.278 5.175-4.765 0-1.824-.372-3.852-3.396-5.8l-3.935-2.567c-2.073-1.368-4.476-3.73-4.476-7.123 0-3.936 3.063-7.124 8.45-7.124 1.285 0 2.777.246 3.852.54.538.163 1.12.245 1.45.245.374.994.748 3.315.748 5.053-.166.25-.83.374-1.037.126-.538-1.99-1.656-4.683-5.632-4.683-4.058 0-4.93 2.694-4.93 4.598 0 2.4 1.99 4.143 3.523 5.094l3.314 2.07c2.61 1.613 5.176 4.018 5.176 7.952 0 4.56-3.438 7.665-8.82 7.665M193.488 109.473c0 4.347.084 4.97 2.485 5.176l1.325.126c.246.164.166.91-.082 1.033-2.36-.083-3.77-.125-5.428-.125-1.654 0-3.106.042-5.757.124-.247-.125-.33-.828 0-1.034l1.49-.127c2.364-.205 2.57-.83 2.57-5.177V90.96c0-1.284 0-1.326-1.244-1.326h-2.276c-1.78 0-4.06.082-5.094 1.036-.993.91-1.408 1.822-1.864 2.855-.33.25-.91.042-1.078-.288.665-1.863 1.284-4.514 1.576-6.17.124-.084.663-.124.787 0 .246 1.326 1.614 1.284 3.518 1.284h16.776c2.24 0 2.61-.083 3.232-1.158.205-.085.663-.042.745.122-.454 1.7-.745 5.05-.62 6.297-.167.33-.87.33-1.078.083-.123-1.033-.413-2.567-1.034-3.02-.955-.706-2.527-1.037-4.805-1.037h-2.94c-1.244 0-1.202.043-1.202 1.41v18.427z"/></g></svg>