<svg height="54" width="79" xmlns="http://www.w3.org/2000/svg" viewBox="0 0 79 54"><path fill="none" d="M78.99 54V.4H0V54h78.99zm0 0"/><path fill="#53386f" fill-rule="evenodd" d="M75.38 33.77c0-1.03-.65-1.8-1.56-1.83-1.03-.03-1.99.98-2.01 2.13-.02 1.02.72 1.85 1.63 1.84 1.02-.02 1.93-1.02 1.94-2.14zm-.11-1.99V20.76c-.97.19-1.88.4-2.79.53-.52.08-.64.32-.64.81.02 3.11.01 6.21.02 9.31 0 .17.04.35.07.62 1.09-.88 2.17-1.04 3.34-.25zm-57.51 4.3c1-.2 1.96-.38 2.9-.6.19-.05.49-.24.49-.37.05-.89.03-1.77.03-2.71-.25.03-.39.03-.52.06-1.97.43-3.93.86-5.9 1.28-.86.19-1.73.34-2.58.54-.19.04-.47.24-.48.38-.05.84-.02 1.68-.02 2.58 1.15-.21 2.2-.41 3.35-.63v11.28l2.73-.54V36.08zm47.09 1.45c.77-.15 1.42-.33 2.07-.39.64-.06.74-.38.74-.95-.02-3.28 0-6.55-.02-9.83-.01-.52.16-.73.66-.8.75-.1 1.5-.26 2.24-.44.18-.04.45-.21.46-.33.04-.91.02-1.81.02-2.84-3.24.69-6.34 1.34-9.43 2v2.93c1.1-.21 2.14-.4 3.26-.61v11.26zM25.82 20.24c.12.32.27.55.3.81.06.64.4.66.89.49.64-.21 1.28-.41 2.01-.65-1.69-4.31-3.37-8.59-5.05-12.87-.08.01-.15.01-.23.01-1.61 5.05-3.22 10.09-4.87 15.27.81-.17 1.41-.36 2.02-.41.63-.07.86-.41 1.03-.98.11-.37.39-.86.7-.96 1.02-.31 2.08-.47 3.2-.71zm-.69-12.32c.13.39.21.7.34.98 1.55 3.69 3.12 7.38 4.69 11.06.11.25.36.44.54.66.22-.24.54-.44.64-.73 1.29-3.46 2.54-6.93 3.79-10.4.44-1.22.84-2.44 1.3-3.81-1.07.23-2.13.23-2.92.69-.5.3-.6 1.3-.88 1.98-.06.16-.09.33-.15.48-.55 1.64-1.1 3.27-1.7 5.05-.18-.45-.29-.73-.4-1.01-.65-1.67-1.29-3.33-1.96-4.98-.09-.22-.38-.53-.54-.51-.89.13-1.77.34-2.75.54zm14.51 8.15v-2.53c.84-.18 1.66-.33 2.46-.53.23-.05.59-.23.59-.38.06-.83.03-1.66.03-2.56-1.09.22-2.06.42-3.13.63 0-.83-.02-1.58.02-2.32.01-.16.27-.38.44-.42.9-.23 1.82-.38 2.72-.61.19-.05.45-.31.46-.48.05-.77.02-1.54.02-2.36-.21.02-.35.01-.48.04-1.85.35-3.69.73-5.54 1.07-.54.1-.51.45-.51.85v12.16c0 .23.03.47.05.8 1.86-.38 3.65-.73 5.44-1.11.14-.03.35-.21.36-.34.03-.81.01-1.63.01-2.51-1.01.21-1.92.39-2.94.6zM9.43 39.04c.66-.13 1.27-.22 1.86-.39.15-.04.31-.33.32-.51.06-1.3-.88-2.57-2.19-2.99-1.99-.66-4.45.53-5.41 2.61-1.02 2.2-.02 4.5 2.29 5.18.71.2 1.45.26 2.17.4.87.16 1.26.66 1.13 1.54-.15 1.07-1.16 2.12-2.42 1.95-.61-.08-.95-.43-1-1.04-.03-.38-.04-.76-.06-1.18-.72.06-1.39.08-2.04.19-.18.03-.41.31-.46.52-.44 1.64.35 3.22 1.93 3.82 2.98 1.12 6.48-.48 6.63-4.51.09-2.11-1-3.51-2.86-3.79-.47-.07-.95-.09-1.42-.17-.64-.11-1.32-.16-1.49-.99-.16-.75.22-1.58.9-1.97.85-.49 1.68-.15 1.97.81.05.14.08.28.15.52zm7.19-25.28c.53-.1 1.07-.22 1.6-.3.49-.07.6-.35.55-.81-.15-1.39-1.14-2.55-2.49-2.85-1.7-.37-3.11.21-4.27 1.43-1.1 1.18-1.61 2.57-1.04 4.2.56 1.59 1.82 2.21 3.35 2.43.54.08 1.08.16 1.61.3.52.13.77.52.81 1.06.1 1.26-1.1 2.48-2.34 2.37-.61-.06-1.02-.38-1.08-1.04-.04-.38-.04-.75-.06-1.2-.71.06-1.37.1-2.03.19-.17.03-.39.2-.45.36-.44 1.17.01 2.7 1.03 3.46.96.72 2.07 1 3.24.83 2.54-.37 4.08-2.07 4.29-4.66.16-2.1-.91-3.55-2.94-3.95-.6-.11-1.23-.14-1.83-.26-.87-.17-1.25-.81-1.02-1.66.22-.85.93-1.46 1.67-1.45.65.01 1.01.41 1.29 1.42.01.02.03.03.11.13zm30.05 16.08c1.17-.23 2.27-.42 3.36-.66.23-.06.6-.27.61-.44.06-.83.03-1.67.03-2.6-2.15.42-4.18.83-6.21 1.19-.56.1-.66.37-.66.89.02 4.22.01 8.44.01 12.66 0 .21.03.43.04.64.11.03.18.07.24.06 2.15-.41 4.3-.82 6.44-1.25.14-.03.34-.23.34-.37.04-.83.02-1.68.02-2.59-1.46.28-2.81.53-4.15.79v-2.77c1.15-.23 2.24-.45 3.35-.68v-2.88c-1.15.21-2.26.41-3.42.62v-2.61zM32 30.09c-.73.14-1.32.32-1.93.36-.72.05-.89.37-.88 1.07.04 2.71.03 5.43.01 8.15-.01 1.44-1.14 2.62-2.56 2.73-1.03.07-1.64-.63-1.65-1.98-.02-2.67-.01-5.33-.01-8v-.96c-.91.18-1.72.32-2.52.51-.13.03-.27.32-.27.49-.02 3.06-.06 6.12.01 9.17.05 1.98 1.14 3.29 2.85 3.7 3.07.73 6.66-1.86 6.88-5.07.14-2.18.06-4.37.07-6.55v-3.62zm28.54 8.47c.05-.05.1-.09.15-.13V24.17c-.74.13-1.43.27-2.13.37-.47.07-.67.27-.66.8.03 1.75.01 3.5.01 5.24v1.23c-2.12-2.1-4.11-4.07-6.18-6.13v14.51c.74-.14 1.41-.28 2.09-.38.48-.07.68-.26.67-.8-.04-1.81-.01-3.63-.01-5.45v-.95c1.15 1.09 2.17 2.04 3.16 3.01.98.96 1.94 1.96 2.9 2.94zm-27.2 5.46c1.2-.32 2.24-.64 3.3-.88 4.3-1 6.79-5.06 6.34-9.39-.33-3.19-3.01-5.35-6.11-4.79-.96.17-1.89.48-2.84.68-.54.11-.71.37-.7.94.02 4.19.01 8.38.01 12.58v.86zm9.73-17.34c.17.01.24.03.31.02 6.42-1.33 12.84-2.67 19.27-3.98.5-.1.64-.31.64-.81-.02-3.25-.01-6.5-.02-9.75 0-.21-.02-.42-.04-.68-.3.04-.53.04-.76.09-6.23 1.24-12.45 2.5-18.68 3.72-.64.12-.74.37-.73.94.02 1.97.01 3.93.01 5.9v4.55zM6.79 28.83V8.73C20.56 5.97 34.35 3.2 48.26.4v13.53c5.2-1.03 10.28-2.04 15.44-3.06v9.73c5.14-1.05 10.19-2.08 15.29-3.13v20.09C52.7 43.03 26.41 48.51.05 54c-.01-.32-.04-.53-.04-.74 0-6.19.01-12.38-.01-18.57 0-.55.16-.73.69-.84 13.73-2.85 27.46-5.73 41.2-8.6.48-.1.74-.26.7-.83-.05-.92-.01-1.84-.01-2.75L6.79 28.83zm0 0"/><path fill="#53386f" fill-rule="evenodd" d="M73.63 33.04c-.08-.22-.15-.41-.23-.61.16-.06.32-.13.52-.21-.53-.37-.73-.29-.82.33-.06.45-.06.92-.1 1.45.34-.09.67-.18 1-.27l-.03-.14c-.17-.05-.35-.1-.52-.16.07-.13.13-.27.18-.39M51.69 18.89c.95-.16 1.78-.3 2.65-.45V15.3c.56-.1 1.08-.2 1.66-.3v7.89c-.51.08-1.05.17-1.68.27v-3.14c-.77.11-1.47.17-2.14.34-.2.05-.45.39-.46.6-.05.92-.02 1.83-.02 2.79-.55.09-1.04.16-1.62.25-.02-.36-.06-.64-.06-.92 0-2.03.04-4.06-.02-6.1-.02-.77.18-1.2 1.11-1.17.15.01.31-.06.58-.11v3.19zm0 0M57 14.64c.95-.21 1.9-.42 2.93-.64 0 .4.04.72-.02 1.01-.03.19-.19.4-.34.49-.17.11-.4.1-.6.15-.92.21-1.03.44-.74 1.66.45-.09.91-.17 1.47-.28 0 .41.03.77-.02 1.11-.02.14-.18.28-.3.37-.11.07-.26.06-.38.1-.96.23-1.03.37-.78 1.67.58-.11 1.15-.23 1.78-.36v1.41c-.99.22-1.97.44-3 .67v-7.36zm0 0"/><path fill="#53386f" fill-rule="evenodd" d="M48.81 23.76l-1.62.24v-5.98c-.79.1-1.46.18-2.19.27v-1.38c1.94-.29 3.91-.59 5.99-.91 0 .33-.01.57 0 .81.04.41-.08.63-.67.71-1.51.2-1.51.23-1.51 1.52v4.72M37.01 40v-3.63c0-1.19.02-2.37-.01-3.56-.01-.55.17-.75.59-.8 1.2-.15 2.3 1.05 2.39 2.65.16 2.6-.85 4.47-2.97 5.34M23 17c.38-.71.69-1.3 1.06-2 .33.6.62 1.11.94 1.69-.64.1-1.25.19-2 .31M73.63 33.04c-.05.12-.11.26-.18.39.17.06.35.11.52.16l.03.14c-.33.09-.66.18-1 .27.04-.53.04-1 .1-1.45.09-.62.29-.7.82-.33-.2.08-.36.15-.52.21.08.2.15.39.23.61"/></svg>