<svg xmlns="http://www.w3.org/2000/svg" viewBox="0 0 500.08229 500.00792" width="500" height="500"><g fill-rule="evenodd"><path d="M35.46 159.432c18.48 0 33.47-14.98 33.47-33.46s-14.99-33.46-33.47-33.46c-18.48 0-33.46 14.98-33.46 33.46s14.98 33.46 33.46 33.46z" fill="#f4f6f6" stroke="#e98780" stroke-width="4"/><path d="M18.76 116.372c-.47.61-.75 1.36-.75 2.19 0 1.97 1.61 3.58 3.58 3.58 1.12 0 2.12-.51 2.78-1.31.65.8 1.65 1.31 2.77 1.31 1.11 0 2.11-.51 2.77-1.31.66.8 1.65 1.31 2.77 1.31s2.11-.51 2.77-1.31c.66.8 1.66 1.31 2.77 1.31 1.12 0 2.12-.51 2.77-1.31.66.8 1.66 1.31 2.78 1.31 1.11 0 2.11-.51 2.77-1.31.65.8 1.65 1.31 2.77 1.31 1.98 0 3.58-1.61 3.58-3.58 0-.81-.27-1.55-.71-2.15l-4.18-5.74H22.74l-3.99 5.7m1.4 5.96v17.5h30.6v-17.5c-.47.18-.99.29-1.53.29-1.06 0-2.03-.4-2.77-1.05-.76.65-1.74 1.04-2.81 1.04-1.05 0-2.02-.38-2.77-1.01-.73.63-1.68 1.01-2.71 1.01-1.04 0-1.98-.38-2.71-1-.73.62-1.67 1-2.71 1-1.09 0-2.09-.42-2.84-1.12-.76.7-1.78 1.12-2.89 1.12-1.02 0-1.96-.36-2.69-.95-.72.59-1.65.95-2.65.95-.54 0-1.05-.1-1.52-.28m5.74 6.03h5.74v11.47h-5.74v-11.47m9.56 0h11.48v5.73H35.45v-5.73" fill="#e6877f"/><path d="M150.84 159.432c18.49 0 33.47-14.98 33.47-33.46s-14.98-33.46-33.47-33.46c-18.48 0-33.46 14.98-33.46 33.46s14.98 33.46 33.46 33.46z" fill="#f4f6f6" stroke="#fdcc00" stroke-width="4"/><path d="M136.72 132.732v-16.43h29v16.43h-29m27.19-14.6h-25.38v12.77h25.38v-12.77m-1.82 10.95h-21.75v-9.13h21.75v9.13m-1.81 7.3h-18.13v-1.83h18.13v1.83" fill="#fdcc00"/><path d="M92.84 159.432c18.49 0 33.47-14.98 33.47-33.46s-14.98-33.46-33.47-33.46c-18.48 0-33.46 14.98-33.46 33.46s14.98 33.46 33.46 33.46z" fill="#f4f6f6" stroke="#a397b6" stroke-width="4"/><path d="M99.29 137.872H86.4c-1.78 0-3.22-1.46-3.22-3.26v-16.26c0-1.8 1.44-3.26 3.22-3.26v3.26h12.89v-3.26c1.78 0 3.22 1.46 3.22 3.26v16.26c0 1.8-1.44 3.26-3.22 3.26m0-16.27H86.4v1.63h12.89v-1.63m0 3.25H86.4v1.63h12.89v-1.63m0 3.26H86.4v1.62h12.89v-1.62m0 3.25H86.4v1.63h12.89v-1.63m-11.28-16.27c0-.89.72-1.62 1.61-1.62 0-.9.72-1.63 1.61-1.63h3.23c.89 0 1.61.73 1.61 1.63.89 0 1.61.73 1.61 1.62v1.63h-9.67v-1.63" fill="#a397b7"/><path d="M207.77 159.432c18.49 0 33.47-14.98 33.47-33.46s-14.98-33.46-33.47-33.46c-18.48 0-33.46 14.98-33.46 33.46s14.98 33.46 33.46 33.46z" fill="#f4f6f6" stroke="#acdabc" stroke-width="4"/><path d="M212.2 115.692c-1.53 0-3-.32-4.41-.62-1.43-.32-2.91-.99-4.48-.99-3.12 0-4.68 1.04-4.79 1.12l-.23.16v22.49h1.56v-10.4c.42-.17 1.45-.71 3.46-.71 1.46 0 2.82.54 4.26.85 1.47.33 2.99.75 4.63.75 3.21 0 4.62-.8 4.7-.83l.35-.13v-13.21s-1.31 1.52-5.05 1.52" fill="#aedabb"/><path d="M35.46 235.002c18.49 0 33.47-14.98 33.47-33.46s-14.98-33.46-33.47-33.46c-18.48 0-33.46 14.98-33.46 33.46s14.98 33.46 33.46 33.46z" fill="#f4f6f6" stroke="#a397b6" stroke-width="4"/><path d="M41.91 213.442H29.02c-1.78 0-3.22-1.46-3.22-3.26v-16.26c0-1.8 1.44-3.26 3.22-3.26v3.26h12.89v-3.26c1.78 0 3.22 1.46 3.22 3.26v16.26c0 1.8-1.44 3.26-3.22 3.26m0-16.27H29.02v1.63h12.89v-1.63m0 3.25H29.02v1.63h12.89v-1.63m0 3.26H29.02v1.62h12.89v-1.62m0 3.25H29.02v1.63h12.89v-1.63m-11.28-16.27c0-.89.72-1.62 1.61-1.62 0-.9.72-1.63 1.61-1.63h3.23c.89 0 1.61.73 1.61 1.63.89 0 1.61.73 1.61 1.62v1.63h-9.67v-1.63" fill="#a397b7"/><path d="M150.39 235.002c18.49 0 33.47-14.98 33.47-33.46s-14.98-33.46-33.47-33.46c-18.48 0-33.46 14.98-33.46 33.46s14.98 33.46 33.46 33.46z" fill="#f4f6f6" stroke="#acdabc" stroke-width="4"/><path d="M154.82 191.262c-1.53 0-3-.32-4.41-.62-1.43-.32-2.91-.99-4.48-.99-3.12 0-4.68 1.04-4.79 1.12l-.23.16v22.49h1.56v-10.4c.42-.17 1.45-.71 3.46-.71 1.46 0 2.82.54 4.26.85 1.47.33 2.99.75 4.63.75 3.21 0 4.62-.8 4.7-.83l.35-.13v-13.21s-1.31 1.52-5.05 1.52" fill="#aedabb"/><path d="M93.46 235.002c18.49 0 33.47-14.98 33.47-33.46s-14.98-33.46-33.47-33.46c-18.48 0-33.46 14.98-33.46 33.46s14.98 33.46 33.46 33.46z" fill="#f4f6f6" stroke="#fdcc00" stroke-width="4"/><path d="M79.34 208.302v-16.43h29v16.43h-29m27.19-14.6H81.15v12.77h25.38v-12.77m-1.82 10.95H82.96v-9.13h21.75v9.13m-1.81 7.3H84.77v-1.83h18.13v1.83" fill="#fdcc00"/><g transform="translate(0 .202)" fill="none"><path d="M44.12 83.25c21.608 0 39.12-17.517 39.12-39.12 0-21.608-17.517-39.12-39.12-39.12C22.512 5.01 5 22.527 5 44.13c0 21.608 17.517 39.12 39.12 39.12m0 5C19.75 88.25 0 68.495 0 44.13 0 19.76 19.755.01 44.12.01c24.37 0 44.12 19.755 44.12 44.12 0 24.37-19.755 44.12-44.12 44.12" fill="#fff"/><circle cx="44.12" cy="44.12" r="39.5" fill="#000" fill-opacity=".558"/><path d="M36.877 61.777c-2.902 1.59-5.254.2-5.254-3.115V30.325c0-3.31 2.358-4.7 5.254-3.115l26.297 14.406c2.902 1.59 2.895 4.17 0 5.756L36.877 61.778" fill="#fff"/></g><path d="M127.413 64.13c0-.54.164-1.074.51-1.553l13.16-18.12-13.16-18.06c-.935-1.292-.556-3.03.855-3.882 1.4-.863 3.304-.514 4.24.773l14.284 19.616c.685.938.69 2.166.005 3.11l-14.284 19.67c-.936 1.292-2.838 1.642-4.245.783-.885-.54-1.366-1.427-1.366-2.33" fill="#dedede"/><path d="M221.53 65.072h-40c-4.42 0-8-3.58-8-8v-24c0-4.42 3.58-8 8-8h40c4.42 0 8 3.58 8 8v24c0 4.42-3.58 8-8 8m-44-16v4h48v-4h-48" fill="#73c9c0"/></g><path d="M22.01 277.07l.01.01 19.48-24.93-4.02-3.14-16.88 21.61-8.46-6.61L9 268.03l12.46 9.74.55-.7zM25 289.01c13.81 0 25-11.19 25-25s-11.19-25-25-25-25 11.19-25 25 11.19 25 25 25zm0 0" fill="#339fba" fill-rule="evenodd"/><g fill-rule="evenodd"><path d="M289.508 159.99c18.493 0 33.475-14.983 33.475-33.466S308 93.058 289.508 93.058c-18.483 0-33.466 14.983-33.466 33.466s14.983 33.465 33.466 33.465zm0 0" fill="#f4f6f6" stroke="#e98780" stroke-width="4.001"/><path d="M272.805 116.932c-.47.6-.75 1.36-.75 2.18 0 1.98 1.61 3.58 3.59 3.58 1.11 0 2.11-.51 2.77-1.31.66.8 1.65 1.31 2.77 1.31s2.112-.51 2.772-1.31c.66.8 1.66 1.31 2.77 1.31 1.12 0 2.12-.51 2.77-1.31.66.8 1.66 1.31 2.78 1.31 1.11 0 2.11-.51 2.772-1.31.65.8 1.65 1.31 2.77 1.31 1.11 0 2.11-.51 2.77-1.31.66.8 1.65 1.31 2.77 1.31 1.98 0 3.58-1.6 3.58-3.58 0-.81-.26-1.55-.71-2.15h.02l-4.19-5.73h-25.264l-3.99 5.7zm1.41 5.95v17.504h30.595v-17.503c-.47.19-.99.29-1.53.29-1.06 0-2.03-.4-2.77-1.05-.75.65-1.74 1.04-2.81 1.04-1.05 0-2.02-.38-2.76-1-.372.31-.792.56-1.252.73-.46.18-.95.27-1.47.27-1.03 0-1.98-.37-2.71-.99-.73.62-1.67.99-2.7.99-1.1 0-2.1-.42-2.85-1.11-.76.69-1.772 1.11-2.892 1.11-1.02 0-1.95-.35-2.69-.95-.72.6-1.65.95-2.65.95-.53 0-1.04-.1-1.51-.28zm5.73 6.032h5.742v11.472h-5.74v-11.472zm9.563 0h11.482v5.74h-11.482v-5.74zm0 0" fill="#e6877f"/><path d="M403.026 159.99c18.493 0 33.476-14.983 33.476-33.466s-14.983-33.466-33.476-33.466c-18.483 0-33.465 14.983-33.465 33.466s14.983 33.465 33.466 33.465zm0 0" fill="#f4f6f6" stroke="#fdcc00" stroke-width="4.001"/><path d="M388.904 133.285v-16.423h29.005v16.423h-29.006zm27.184-14.603h-25.374v12.782h25.374v-12.782zm-1.81 10.952h-21.753v-9.12h21.753v9.12zm-1.81 7.3h-18.133v-1.82h18.133v1.82zm0 0" fill="#fdcc00"/><path d="M346.017 159.99c18.493 0 33.475-14.983 33.475-33.466s-14.982-33.466-33.475-33.466c-18.483 0-33.466 14.983-33.466 33.466s14.984 33.465 33.467 33.465zm0 0" fill="#f4f6f6" stroke="#f3b276" stroke-width="4.001"/><path d="M355.7 113.06h-19.285c-2.12 0-3.86 1.742-3.86 3.862v19.293c0 2.12 1.74 3.85 3.86 3.85H355.7c2.12 0 3.86-1.73 3.86-3.85v-19.293c0-2.12-1.74-3.86-3.86-3.86zm-16.394 9.653c-1.54 0-2.89-1.35-2.89-2.9 0-1.54 1.35-2.89 2.89-2.89s2.89 1.35 2.89 2.89c0 1.55-1.35 2.9-2.89 2.9zm6.75 6.75c-1.54 0-2.89-1.35-2.89-2.9 0-1.54 1.35-2.89 2.89-2.89s2.89 1.35 2.89 2.89c0 1.55-1.35 2.9-2.89 2.9zm6.752 6.752c-1.54 0-2.89-1.35-2.89-2.9 0-1.54 1.35-2.89 2.89-2.89s2.89 1.35 2.89 2.89c0 1.55-1.35 2.9-2.89 2.9zm0 0" fill="#f1b171"/><path d="M459.536 159.99c18.493 0 33.475-14.983 33.475-33.466s-14.98-33.466-33.474-33.466c-18.483 0-33.466 14.983-33.466 33.466s14.983 33.465 33.466 33.465zm0 0" fill="#f4f6f6" stroke="#acdabc" stroke-width="4.001"/><path d="M463.966 116.252c-1.53 0-3-.32-4.41-.63-1.43-.31-2.91-.98-4.48-.98-3.122 0-4.682 1.03-4.792 1.11l-.23.16V138.416h1.56v-10.412c.42-.16 1.45-.71 3.46-.71 1.46 0 2.82.54 4.262.86 1.47.32 2.99.75 4.63.75 3.21 0 4.62-.81 4.7-.84l.35-.12v-13.222s-1.31 1.53-5.05 1.53zm0 0" fill="#aedabb"/></g><path d="M289.508 236.002c18.493 0 33.475-14.983 33.475-33.466S308 169.07 289.508 169.07c-18.483 0-33.466 14.983-33.466 33.466s14.983 33.466 33.466 33.466zm0 0" fill="#f4f6f6" fill-rule="evenodd" stroke="#339fba" stroke-width="4.001"/><path d="M285.977 186.504h7v28.004h-7v-28.004zm6.95 28.954l-3.48 3.47-3.47-3.47h6.95zm0 0" fill="#339fba" fill-rule="evenodd"/><path d="M365.52 236.002c18.493 0 33.476-14.983 33.476-33.466s-14.983-33.465-33.476-33.465c-18.483 0-33.465 14.983-33.465 33.466s14.982 33.466 33.465 33.466zm0 0" fill="#f4f6f6" fill-rule="evenodd" stroke="#6ec9c0" stroke-width="4.001"/><path d="M375.062 212.078h-20.004c-2.21 0-4-1.7-4-3.8v-11.403c0-2.1 1.79-3.8 4-3.8h20.004c2.21 0 4 1.7 4 3.8v11.402c0 2.1-1.79 3.8-4 3.8zm-22.004-7v2h24.004v-2h-24.004zm0 0" fill="#73c9c0" fill-rule="evenodd"/></svg>